<svg xmlns="http://www.w3.org/2000/svg" xmlns:xlink="http://www.w3.org/1999/xlink" viewBox="0 0 138.5295 157.25714"><defs><style>.cls-1{fill:url(#linear-gradient);}.cls-2{fill:#231f20;}</style><linearGradient id="linear-gradient" x1="69.26475" y1="157.25714" x2="69.26475" gradientUnits="userSpaceOnUse"><stop offset="0" stop-color="#45c3f1"/><stop offset="1" stop-color="#58b55f"/></linearGradient></defs><g id="Layer_3" data-name="Layer 3"><path class="cls-1" d="M69.26466,0C-48.73613,0,10.66206,122.047,53.35414,151.10034l.38916-17.02594-6.53589-18.48248L43.99263,52.88184,43.702,47.21338l-.85187-16.61725s-1.03808-5.54053,2.90015-5.54053c3.93829,0,46.28558-.02887,46.28558-.02887s2.939.21405,2.939,3.85767c0,3.64355-4.39649,86.66418-4.39649,86.66418L84.04256,134.031l.231,17.66937-.00006.00006C127.01973,123.77582,188.099,0,69.26466,0Z"/><path class="cls-2" d="M84.04256,134.031l6.53582-18.48243s4.39649-83.02063,4.39649-86.66418c0-3.64362-2.939-3.85767-2.939-3.85767s-42.34729.02887-46.28558.02887c-3.93823,0-2.90015,5.54053-2.90015,5.54053L43.702,47.21338l.29059,5.66846,3.21478,62.71008L53.7433,134.0744l-.38916,17.02594c5.76776,3.92511,11.23126,6.1568,15.91052,6.1568,4.43457,0,9.574-2.00635,15.00879-5.5567l.00006-.00006Z"/><path class="cls-2" d="M40.75562,48.18183,39.52911,45.2387s-.3681-.98136-.98135-.98136-4.29952.15885-4.29952.15885-6.93178,5.19955,0,12.13132l4.8481-.24226s1.182-.53783,1.182-.92548.6651-3.01391.6651-3.01391l3.14761.32645-.29059-5.66846Z"/><path class="cls-2" d="M42.12657,73.56372l-1.22651-2.94314s-.3681-.98135-.98135-.98135-4.29952.15885-4.29952.15885-6.93178,5.19954,0,12.13132l4.8481-.24227s1.182-.53782,1.182-.92547.6651-3.01391.6651-3.01391l3.14761.32645-.29059-5.66846Z"/><path class="cls-2" d="M43.55515,102.89658l-1.22651-2.94314s-.36811-.98135-.98136-.98135-4.29952.15885-4.29952.15885-6.93178,5.19954,0,12.13132l4.8481-.24226s1.182-.53783,1.182-.92548.6651-3.01391.6651-3.01391l3.14761.32645L46.6,101.7386Z"/><path class="cls-2" d="M94.10946,102.88939,95.336,99.94625s.36811-.98135.98135-.98135,4.29952.15885,4.29952.15885,6.93178,5.19954,0,12.13132l-4.84809-.24227s-1.182-.53782-1.182-.92547-.6651-3.01391-.6651-3.01391l-3.14761.32645.29059-5.66846Z"/><path class="cls-2" d="M95.738,73.56372l1.22651-2.94314s.36811-.98135.98135-.98135,4.29952.15885,4.29952.15885,6.93178,5.19954,0,12.13132l-4.84809-.24227s-1.182-.53782-1.182-.92547-.6651-3.01391-.6651-3.01391l-3.14761.32645.29059-5.66846Z"/><path class="cls-2" d="M97.18914,46.253l1.22651-2.94314s.36811-.98135.98136-.98135,4.29952.15885,4.29952.15885,6.93177,5.19954,0,12.13132l-4.8481-.24227s-1.182-.53782-1.182-.92547-.6651-3.01391-.6651-3.01391l-3.14761.32645L94.1443,45.095Z"/></g></svg>