<svg xmlns="http://www.w3.org/2000/svg" width="217.715" height="220.63" viewBox="0 0 217.715 220.63">
  <path id="Path_10" data-name="Path 10" d="M88.272,26.32,80.887,225.611l56.97,21.34,56.97-21.34L187.443,26.32,137.857,33.4ZM45.784,56.378c-17.264,0-17.264,37.4,0,37.4h4.561l6.234-18.7-6.234-18.7Zm179.591,0-6.234,18.7,6.234,18.7h4.556c17.264,0,17.264-37.4,0-37.4ZM107.166,67.408a7.673,7.673,0,1,1-7.673,7.673A7.673,7.673,0,0,1,107.166,67.408Zm61.382,0a7.673,7.673,0,1,1-7.673,7.673A7.673,7.673,0,0,1,168.549,67.408ZM64.2,70.765l1.007,2.973.48,1.343L64.247,79.4H77.674l.336-8.632Zm133.506,0,.336,8.632h13.475l-1.007-2.973-.48-1.343,1.439-4.316Zm-153.839,47c-17.264,0-17.264,37.4,0,37.4h4.561l6.234-18.7-6.234-18.7Zm183.427,0-6.234,18.7,6.234,18.7h4.556c17.264,0,17.264-37.4,0-37.4ZM107.166,128.79a7.673,7.673,0,1,1-7.673,7.673A7.673,7.673,0,0,1,107.166,128.79Zm61.382,0a7.673,7.673,0,1,1-7.673,7.673A7.673,7.673,0,0,1,168.549,128.79ZM62.3,132.147l.988,2.973.48,1.343-1.439,4.316H75.42l.336-8.632Zm137.659,0,.336,8.632h13.14l-1.007-2.973-.48-1.343,1.439-4.316Zm-158.011,47c-17.264,0-17.264,37.4,0,37.4h4.561l6.234-18.7-6.234-18.7Zm187.264,0-6.234,18.7,6.234,18.7h4.556c17.264,0,17.264-37.4,0-37.4Zm-122.045,11.03a7.673,7.673,0,1,1-7.673,7.673A7.673,7.673,0,0,1,107.166,190.172Zm61.382,0a7.673,7.673,0,1,1-7.673,7.673A7.673,7.673,0,0,1,168.549,190.172ZM60.4,193.529l.993,2.973.456,1.343-1.439,4.316H73.166l.288-8.632Zm141.865,0,.288,8.632h12.8l-1.007-2.973-.48-1.343,1.439-4.316Z" transform="translate(-29 -26.32)" fill="#646464"/>
</svg>
