<svg id="Layer_1" data-name="Layer 1" xmlns="http://www.w3.org/2000/svg" viewBox="0 0 11.48755 2.19069"><defs><style>.cls-1{fill:#fff;}.cls-2{fill:#454545;}.cls-3{fill:#febf13;}</style></defs><path class="cls-1" d="M3.68774,1.09938a.10257.10257,0,0,1,.0127.05176.12433.12433,0,0,1-.01172.05908.10545.10545,0,0,1-.03613.0376c-.06446.043-.168.11328-.30957.21094a1.98106,1.98106,0,0,1-.166.53662.29969.29969,0,0,1-.25781.19531.18717.18717,0,0,1-.13672-.05176.18167.18167,0,0,1-.05273-.13574.396.396,0,0,1,.03418-.15625.73.73,0,0,1,.1289-.18262,2.1426,2.1426,0,0,1,.26758-.23681l.00488-.03125a.65764.65764,0,0,1-.25488.0542.70165.70165,0,0,1-.32422-.07178.52137.52137,0,0,1-.2168-.20313A.58885.58885,0,0,1,2.29224.86989.958.958,0,0,1,2.384.43971.70424.70424,0,0,1,2.63794.15016a.66333.66333,0,0,1,.36328-.103A.40669.40669,0,0,1,3.28931.137.30806.30806,0,0,1,3.386.37477a.2997.2997,0,0,1-.03516.15528A.12136.12136,0,0,1,3.178.56716.07045.07045,0,0,1,3.15063.50759.34091.34091,0,0,1,3.15747.45192.34734.34734,0,0,0,3.16724.37966a.13456.13456,0,0,0-.042-.10694A.20885.20885,0,0,0,2.98462.23464.38844.38844,0,0,0,2.762.304a.4826.4826,0,0,0-.166.20655.80007.80007,0,0,0-.0625.32959.41165.41165,0,0,0,.10839.30517.42142.42142,0,0,0,.31153.10791.62328.62328,0,0,0,.2373-.05127l.02246-.20068h-.168a.10287.10287,0,0,1-.07032-.022A.09478.09478,0,0,1,2.95044.906.10177.10177,0,0,1,2.97485.83327.08677.08677,0,0,1,3.04028.80739H3.3479a.084.084,0,0,1,.06055.02344A.08182.08182,0,0,1,3.427.89919c-.00293.03515-.01465.11474-.0332.23877l-.01758.125q.13183-.09888.24023-.17139a.07155.07155,0,0,1,.03809-.01318A.03771.03771,0,0,1,3.68774,1.09938Zm-.65722.83448a1.248,1.248,0,0,0,.0957-.3125.92839.92839,0,0,0-.18066.19335.29876.29876,0,0,0-.05469.15235c0,.043.01562.06445.0459.06445C2.96509,2.03151,2.99634,1.99929,3.03052,1.93386Z"/><path class="cls-1" d="M3.62915,1.3821a.29334.29334,0,0,1-.04688-.17041A1.35379,1.35379,0,0,1,3.59888.98561,1.37073,1.37073,0,0,1,3.65259.76784.13583.13583,0,0,1,3.69849.697.16617.16617,0,0,1,3.79224.67555.08253.08253,0,0,1,3.843.68727a.04268.04268,0,0,1,.01367.03418.69459.69459,0,0,1-.01758.08887,1.10217,1.10217,0,0,0-.02637.11035,1.49815,1.49815,0,0,0-.0332.23047.1113.1113,0,0,0,.00781.04834.02932.02932,0,0,0,.02637.01416c.0166,0,.03711-.0166.0625-.04932a.7224.7224,0,0,0,.07812-.1499,1.934,1.934,0,0,0,.082-.24658.13116.13116,0,0,1,.04-.0708A.13049.13049,0,0,1,4.15747.67555.10415.10415,0,0,1,4.2102.68483a.036.036,0,0,1,.01465.03369,1.59183,1.59183,0,0,1-.041.2251,1.881,1.881,0,0,0-.0459.26026.07893.07893,0,0,0,.01367.04833.04078.04078,0,0,0,.03418.01709.127.127,0,0,0,.07813-.04A1.37978,1.37978,0,0,0,4.385,1.09841a.05647.05647,0,0,1,.04394-.023.03864.03864,0,0,1,.03418.01953.1057.1057,0,0,1,.0127.0542.15266.15266,0,0,1-.03125.102.75617.75617,0,0,1-.15234.14306.31891.31891,0,0,1-.18555.05616.1272.1272,0,0,1-.11621-.061.33318.33318,0,0,1-.03614-.1709.3959.3959,0,0,1-.084.17188.16615.16615,0,0,1-.12012.06006A.14144.14144,0,0,1,3.62915,1.3821Z"/><path class="cls-1" d="M4.38892,1.37477a.36758.36758,0,0,1-.04883-.20068A1.22754,1.22754,0,0,1,4.35962.98415,1.645,1.645,0,0,1,4.40747.76784a.1353.1353,0,0,1,.04-.07227.12518.12518,0,0,1,.0791-.02c.05566,0,.083.01856.083.05616a1.19921,1.19921,0,0,1-.03125.19043,1.4133,1.4133,0,0,0-.03906.24511.17341.17341,0,0,0,.01269.07569.04682.04682,0,0,0,.04492.02636.1266.1266,0,0,0,.07422-.041,1.61955,1.61955,0,0,0,.11817-.12988.05825.05825,0,0,1,.04492-.023.03715.03715,0,0,1,.0332.01953.1058.1058,0,0,1,.0127.0542.15271.15271,0,0,1-.03125.102.43569.43569,0,0,1-.30469.19922A.1708.1708,0,0,1,4.38892,1.37477ZM4.45337.53493A.11845.11845,0,0,1,4.41919.44509a.12138.12138,0,0,1,.04492-.0962A.17118.17118,0,0,1,4.57739.31032.15509.15509,0,0,1,4.676.34011a.1.1,0,0,1,.03809.084.13542.13542,0,0,1-.043.10449.16414.16414,0,0,1-.11328.03858A.1488.1488,0,0,1,4.45337.53493Z"/><path class="cls-1" d="M5.51392,1.095a.10635.10635,0,0,1,.01171.0542.14764.14764,0,0,1-.03125.102.69385.69385,0,0,1-.15429.14306.33612.33612,0,0,1-.19239.05616q-.33544,0-.33593-.47217c0-.04834.00195-.09717.00488-.14649H4.75317A.09361.09361,0,0,1,4.68579.81374a.08544.08544,0,0,1-.0166-.05762c0-.06152.02441-.0918.07324-.0918h.09375a1.68034,1.68034,0,0,1,.08594-.331A.74981.74981,0,0,1,5.06079.095.23928.23928,0,0,1,5.23657.00612a.12329.12329,0,0,1,.1084.061A.27437.27437,0,0,1,5.384.22a.57725.57725,0,0,1-.21386.44433h.18457a.05231.05231,0,0,1,.03808.01123.06037.06037,0,0,1,.01172.043c0,.07569-.0625.11328-.18652.11328h-.2002c-.002.05469-.0039.09766-.0039.12842a.50476.50476,0,0,0,.041.24024.13611.13611,0,0,0,.12695.06884.19565.19565,0,0,0,.125-.04248,1.04416,1.04416,0,0,0,.12891-.12841.0551.0551,0,0,1,.04395-.023A.03865.03865,0,0,1,5.51392,1.095ZM5.137.22585a.82934.82934,0,0,0-.05762.1709,2.10152,2.10152,0,0,0-.04492.24267A.564.564,0,0,0,5.17993.451.4552.4552,0,0,0,5.22778.261c0-.06445-.01172-.09716-.03613-.09716C5.17505.16384,5.15747.18434,5.137.22585Z"/><path class="cls-1" d="M5.43188,1.37624a.29786.29786,0,0,1-.06054-.19385A.54235.54235,0,0,1,5.43188.93288.52757.52757,0,0,1,5.594.74391.36613.36613,0,0,1,5.80884.67214.06544.06544,0,0,1,5.85767.6863a.12783.12783,0,0,1,.0205.05029A.37866.37866,0,0,1,5.95044.72975c.05371,0,.08008.01954.08008.05762A1.188,1.188,0,0,1,6.0061.95192a1.585,1.585,0,0,0-.03808.26319.06186.06186,0,0,0,.01269.03955.039.039,0,0,0,.03223.01464.12349.12349,0,0,0,.07519-.04,1.27294,1.27294,0,0,0,.12012-.13086.05825.05825,0,0,1,.04492-.023.03717.03717,0,0,1,.03321.01953.09685.09685,0,0,1,.01269.0542.15266.15266,0,0,1-.03125.102.81726.81726,0,0,1-.14355.1416.23981.23981,0,0,1-.14551.05762.1494.1494,0,0,1-.09961-.03711.2193.2193,0,0,1-.06836-.10108.25054.25054,0,0,1-.21582.13819A.20089.20089,0,0,1,5.43188,1.37624Zm.291-.13477a.26853.26853,0,0,0,.04785-.11328L5.83227.82546a.197.197,0,0,0-.12793.05175.34024.34024,0,0,0-.09277.13233.43706.43706,0,0,0-.03418.17432.11674.11674,0,0,0,.02051.07568.069.069,0,0,0,.05664.0249A.09034.09034,0,0,0,5.7229,1.24147Z"/><path class="cls-1" d="M6.89282.92653A.08769.08769,0,0,1,6.91821.99a.14107.14107,0,0,1-.00976.0459.28575.28575,0,0,1-.07422.102.1597.1597,0,0,1-.10547.041.104.104,0,0,1-.07813-.03271.12191.12191,0,0,1-.03222-.08887q0-.0315.00293-.06738a.24227.24227,0,0,0,.0039-.03662A.02827.02827,0,0,0,6.61938.93386.018.018,0,0,0,6.60571.92751c-.01562,0-.03613.01806-.0625.05469a.81764.81764,0,0,0-.0791.146,1.17922,1.17922,0,0,0-.06445.19043.25258.25258,0,0,1-.041.10547.09726.09726,0,0,1-.07617.02637.0908.0908,0,0,1-.08789-.06592.64072.64072,0,0,1-.02539-.21045A1.32663,1.32663,0,0,1,6.23071.76784.122.122,0,0,1,6.27856.698.16991.16991,0,0,1,6.37329.67555a.09162.09162,0,0,1,.0459.00831.03425.03425,0,0,1,.01367.03125.63171.63171,0,0,1-.02539.11816c-.01074.04394-.01953.08252-.02539.11523a1.01448,1.01448,0,0,0-.0166.12207A.92628.92628,0,0,1,6.48657.84011.47642.47642,0,0,1,6.61841.71364.235.235,0,0,1,6.73559.67555.0976.0976,0,0,1,6.80884.7029a.11361.11361,0,0,1,.02539.07959.66608.66608,0,0,1-.01856.11865h.01465A.08586.08586,0,0,1,6.89282.92653Z"/><path class="cls-1" d="M8.79712.11159a.07829.07829,0,0,1,.02539.05713.095.095,0,0,1-.03027.0791.13792.13792,0,0,1-.09668.02C8.59692.26,8.51977.25466,8.46509.25221,8.40942.24929,8.33716.24733,8.24731.24636Q8.1858.54885,8.135.85475q-.01758.11206-.03809.25928c-.01269.09815-.02148.17725-.02636.23779a.091.091,0,0,1-.03907.07325.15183.15183,0,0,1-.08691.02539.122.122,0,0,1-.084-.02637.08629.08629,0,0,1-.03027-.06934,1.24185,1.24185,0,0,1,.0127-.13037c.00781-.061.01757-.125.02832-.19189.01269-.0669.02148-.125.02832-.17432.01172-.08349.02539-.166.041-.24853.01563-.082.03125-.16016.0459-.2334.00391-.0166.00781-.03516.01172-.05664q.00732-.03224.01465-.07178A1.37489,1.37489,0,0,0,7.76.27419a.268.268,0,0,0-.13086.06006.137.137,0,0,0-.03906.09961.19935.19935,0,0,0,.0332.10693A.04408.04408,0,0,1,7.63013.5652.07559.07559,0,0,1,7.593.6238a.1268.1268,0,0,1-.07618.02734A.06865.06865,0,0,1,7.47.63454.20241.20241,0,0,1,7.41626.55446.29673.29673,0,0,1,7.39477.43727.29218.29218,0,0,1,7.48559.21266.5862.5862,0,0,1,7.76392.08815,2.39118,2.39118,0,0,1,8.24341.04909c.12109,0,.21679.002.28906.00635A1.63146,1.63146,0,0,1,8.721.07692.14579.14579,0,0,1,8.79712.11159Z"/><path class="cls-1" d="M8.55981,1.3821a.29334.29334,0,0,1-.04687-.17041,1.35384,1.35384,0,0,1,.0166-.22608A1.37073,1.37073,0,0,1,8.58325.76784.13589.13589,0,0,1,8.62915.697.16621.16621,0,0,1,8.7229.67555a.08251.08251,0,0,1,.05078.01172.04268.04268,0,0,1,.01367.03418.69459.69459,0,0,1-.01758.08887,1.10467,1.10467,0,0,0-.02636.11035,1.49862,1.49862,0,0,0-.03321.23047.11111.11111,0,0,0,.00782.04834.02932.02932,0,0,0,.02636.01416c.01661,0,.03711-.0166.0625-.04932a.72187.72187,0,0,0,.07813-.1499A1.93566,1.93566,0,0,0,8.967.76784a.13116.13116,0,0,1,.04-.0708.13049.13049,0,0,1,.081-.02149.10422.10422,0,0,1,.05274.00928.036.036,0,0,1,.01465.03369,1.59254,1.59254,0,0,1-.041.2251,1.88263,1.88263,0,0,0-.0459.26026.079.079,0,0,0,.01367.04833.0408.0408,0,0,0,.03418.01709.12693.12693,0,0,0,.07813-.04,1.37978,1.37978,0,0,0,.12109-.13086.05648.05648,0,0,1,.04395-.023A.03864.03864,0,0,1,9.3938,1.095a.1058.1058,0,0,1,.01269.0542.15266.15266,0,0,1-.03125.102.75617.75617,0,0,1-.15234.14306.31889.31889,0,0,1-.18555.05616.12721.12721,0,0,1-.11621-.061.33329.33329,0,0,1-.03613-.1709.3959.3959,0,0,1-.084.17188.16613.16613,0,0,1-.12011.06006A.14145.14145,0,0,1,8.55981,1.3821Z"/><path class="cls-1" d="M9.302,1.38454a.64072.64072,0,0,1-.02539-.21045A1.32663,1.32663,0,0,1,9.33813.76784.12193.12193,0,0,1,9.386.698.16988.16988,0,0,1,9.48071.67555a.09162.09162,0,0,1,.0459.00831.03425.03425,0,0,1,.01367.03125.63171.63171,0,0,1-.02539.11816C9.50415.87721,9.49536.91579,9.4895.9485a1.01854,1.01854,0,0,0-.0166.12207A.92628.92628,0,0,1,9.594.84011.47843.47843,0,0,1,9.72681.71364.23839.23839,0,0,1,9.846.67555a.09487.09487,0,0,1,.10742.10694,1.31992,1.31992,0,0,1-.03711.23193,1.17679,1.17679,0,0,0-.03125.18946c0,.04345.0166.06542.04785.06542a.127.127,0,0,0,.07813-.04,1.37978,1.37978,0,0,0,.12109-.13086.05825.05825,0,0,1,.04492-.023.03715.03715,0,0,1,.0332.01953.09684.09684,0,0,1,.0127.0542.15266.15266,0,0,1-.03125.102.73141.73141,0,0,1-.15234.14306.31891.31891,0,0,1-.18555.05616.15747.15747,0,0,1-.126-.04883.207.207,0,0,1-.043-.14063,1.00866,1.00866,0,0,1,.02344-.16406A.892.892,0,0,0,9.72876.95339c0-.01709-.00586-.02588-.01758-.02588-.01465,0-.03418.01806-.06055.05469a.8897.8897,0,0,0-.07812.146,1.09416,1.09416,0,0,0-.06543.19043.25416.25416,0,0,1-.042.10449.095.095,0,0,1-.0752.02735A.09081.09081,0,0,1,9.302,1.38454Z"/><path class="cls-1" d="M10.85669,1.095a.10634.10634,0,0,1,.01172.0542.14769.14769,0,0,1-.03125.102.59723.59723,0,0,1-.17188.13672.479.479,0,0,1-.2373.0625.367.367,0,0,1-.26856-.09375.34353.34353,0,0,1-.09472-.25684.48371.48371,0,0,1,.04687-.21142.39653.39653,0,0,1,.13281-.15528.33131.33131,0,0,1,.19141-.05762.20988.20988,0,0,1,.15332.05665.2081.2081,0,0,1,.05762.1538.26935.26935,0,0,1-.08106.19532.59228.59228,0,0,1-.27636.1289.16228.16228,0,0,0,.15625.07569.3592.3592,0,0,0,.16894-.05176.56979.56979,0,0,0,.16406-.13574.05511.05511,0,0,1,.04395-.023A.03864.03864,0,0,1,10.85669,1.095Zm-.55176-.1875a.337.337,0,0,0-.042.1709V1.0818a.36629.36629,0,0,0,.15332-.06884A.13613.13613,0,0,0,10.47192.906a.07517.07517,0,0,0-.0166-.05029.06073.06073,0,0,0-.04687-.019A.122.122,0,0,0,10.30493.90749Z"/><path class="cls-1" d="M11.46216.92653A.08769.08769,0,0,1,11.48755.99a.1411.1411,0,0,1-.00977.0459.28575.28575,0,0,1-.07422.102.15966.15966,0,0,1-.10547.041A.104.104,0,0,1,11.22,1.14626a.12192.12192,0,0,1-.03223-.08887q0-.0315.00293-.06738a.24268.24268,0,0,0,.00391-.03662.02827.02827,0,0,0-.00586-.01953.018.018,0,0,0-.01367-.00635c-.01563,0-.03613.01806-.0625.05469a.817.817,0,0,0-.0791.146,1.17924,1.17924,0,0,0-.06446.19043.25273.25273,0,0,1-.041.10547.09728.09728,0,0,1-.07617.02637.09079.09079,0,0,1-.08789-.06592.64039.64039,0,0,1-.0254-.21045,1.32633,1.32633,0,0,1,.06153-.40625A.12192.12192,0,0,1,10.8479.698a.16991.16991,0,0,1,.09473-.02247.09155.09155,0,0,1,.04589.00831.03425.03425,0,0,1,.01368.03125.63171.63171,0,0,1-.02539.11816c-.01075.04394-.01954.08252-.02539.11523a1.01629,1.01629,0,0,0-.01661.12207.92661.92661,0,0,1,.1211-.23046.4764.4764,0,0,1,.13183-.12647.235.235,0,0,1,.11719-.03809.09758.09758,0,0,1,.07324.02735.11361.11361,0,0,1,.02539.07959A.66672.66672,0,0,1,11.385.90114h.01465A.08588.08588,0,0,1,11.46216.92653Z"/><g id="Group_2" data-name="Group 2"><path id="Path_2" data-name="Path 2" class="cls-2" d="M.7643,1.71967S-.95537,0,.7643,0,.7643,1.71967.7643,1.71967Z"/><path id="Path_3" data-name="Path 3" class="cls-3" d="M.76429,1.35527S-.3883.20267.76429.20267.76429,1.35527.76429,1.35527Z"/></g></svg>